Patient4_TMGait_0pt8_01_right_05_EMG.mot
version=1
nRows=30
nColumns=33
inDegrees=no
endheader
time	1LAddLong	2LGlutMax	3LGlutMed	4LIliopsoas	5LSemiMemb	6LBicFemLong	7LRecFem	8LVastMed	9LVastLat	10LGasMed	11LTibAnt	12lTibPost	13LPeroneusLong	14LSol	15LExtDigLong	16LFlexDigLong	17RAddLong	18RGlutMax	19RGlutMed	20RIliopsoas	21RSemiMemb	22RBicFemLong	23RRecFem	24RVastMed	25RVastLat	26RGasMed	27RTibAnt	28RTibPost	29RPeroneusLong	30RSol	31RExtDigLong	32RFlexDigLong
5.32	-0.00351	-0.24719	-0.15945	-0.018005	0.025024	0.071411	0.079956	-0.03479	0.13138	-0.06012	0.020752	0.007629	-0.12283	0.14587	-0.088806	0.1561	-0.046234	0.12741	0.42984	-0.027313	0.20447	0.1297	0.12039	0.09201	-0.045166	-0.010986	0.19653	-0.002899	0.1358	0.009766	-0.005035	0.008698
5.321	0.009003	-0.23865	-0.16556	0.008392	0.040894	-0.005646	0.10773	-0.028381	0.046997	-0.063782	0.005646	0.074615	-0.067139	0.1947	-0.053864	0.10635	-0.009613	0.062866	0.40298	-0.1445	0.20309	0.12817	0.11948	0.18921	-0.053101	0.006866	-0.14252	-0.001984	-0.16495	-0.11383	-0.00351	0.012665
5.322	-0.00351	-0.24185	-0.10376	-0.006866	-0.009613	-0.013733	0.15427	-0.023346	-0.000153	-0.089111	0.045929	0.10346	-0.02655	0.11047	-0.030975	0.042114	-0.00473	0.06958	0.31357	-0.1207	0.18585	0.096741	0.1149	0.19669	-0.07019	0.004883	-0.034943	-0.002441	-0.42175	-0.12863	-0.003357	0.011597
5.323	0.001221	-0.24735	-0.040283	-0.006104	-0.049744	0.004578	0.17227	-0.015259	0.02121	-0.024567	0.001984	-0.1178	0.05127	-0.064697	-0.002136	0.09552	0.033569	0.027924	0.36743	-0.066223	0.17456	0.11704	0.077362	0.088043	-0.061951	0.001831	0.20142	-0.001984	-0.67413	-0.090485	0.000153	0.019379
5.324	-0.00061	-0.26032	-0.13092	0.013275	-0.062103	0.006409	0.17639	-0.004578	0.007935	-0.062103	0.032196	-0.018921	0.13855	-0.24353	0.023193	0.099792	0.071869	0.011902	0.42541	0.010986	0.17639	0.11429	0.073242	0.033417	-0.043793	-0.004883	0.12802	-0.003815	-0.014648	-0.048065	-0.003357	0.006256
5.325	-0.001526	-0.27405	-0.088654	0.006561	-0.026398	0.015106	0.17502	-0.004578	0.018005	-0.18372	0.017853	0	-0.096893	-0.059357	0.044708	-0.39093	0.048218	-0.011444	0.62103	0.16022	0.15869	0.12787	0.088043	0	-0.056	-0.004883	-0.079956	-0.001221	0.103	-0.005951	-0.002747	0.004883
5.326	0.006104	-0.27329	-0.080566	0	0.013885	0.050049	0.16098	-0.004578	0.017853	-0.16571	0.021515	0.006256	-0.079803	0.002747	0.011597	0.09903	0.032959	-0.068359	0.27939	0.31601	0.14648	0.12039	0.12238	-0.014648	-0.051727	-0.002136	-0.082397	-0.009766	-0.078888	0.019836	-0.00351	0.007019
5.327	0.000763	-0.26169	-0.096588	-0.006866	-0.001831	-0.034332	0.16174	0.004578	0.026245	-0.12741	0.005798	0.003204	-0.13428	-0.020447	-0.001373	0.077515	-0.000305	-0.046387	0.30945	0.29907	0.14252	0.13046	0.092621	-0.037537	-0.061798	-0.003662	0.067444	-0.009613	-0.42679	0.076141	-0.005798	0.007629
5.328	-0.005035	-0.28168	-0.099792	-0.00946	-0.016479	0.011444	0.15305	-0.008545	0.020447	0.00885	0.006409	0.011597	0.051117	-0.040436	0.031586	-0.006866	-0.053406	-0.050507	0.29373	0.14481	0.13748	0.13519	0.12924	-0.028076	-0.045471	-0.004578	-0.1004	-0.007629	-0.34836	0.07782	-0.004272	0.006561
5.329	-0.010223	-0.27298	-0.079651	-0.002289	-0.028992	0.051117	0.15915	0.00351	0.018921	0.057983	0.009918	-0.005341	0.26627	-0.023956	0.069885	-0.021973	-0.098114	-0.059814	0.35996	0.11932	0.12253	0.14221	0.11337	-0.016174	-0.041199	0.001678	-0.043793	-0.00885	0.01709	0.004425	-0.004425	0.008087
5.33	-0.013275	-0.3122	0.008698	0.027618	-0.059967	0.050354	0.17319	0.00061	0.004425	0.065918	0.005798	-0.006409	0.37384	-0.010376	0.077057	-0.015106	-0.13428	-0.068207	0.35584	0.056	0.12054	0.14893	0.10208	-0.060272	-0.046844	0.005493	-0.02182	-0.007935	0.63767	0.00885	-0.002747	0.005798
5.331	-0.001831	-0.31647	0.02533	0.004425	-0.038757	-0.054779	0.15396	-0.003662	0.00885	0.037537	0.007324	0.001831	-0.15976	0.18997	0.05188	0.014496	-0.10773	-0.096893	0.50919	-0.008087	0.13367	0.14679	0.081787	-0.042725	-0.021667	-0.000763	0.034027	-0.007019	0.18204	0.055084	-0.001526	0.009766
5.332	0.008087	-0.2655	-0.022888	0.04425	0.046997	-0.16769	0.13443	-0.00061	0.022888	0.082397	0.051422	0.007935	-0.4744	0.23697	-0.052338	0.022125	-0.074463	-0.1506	1.0146	-0.090637	0.13962	0.13794	0.07309	-0.063934	-0.034637	-0.012207	-0.28809	0.001221	0.14923	-0.001526	0.00061	0.014038
5.333	0.009613	-0.29816	-0.020294	0.007172	0.041504	-0.215	0.15213	0.000458	0.004272	0.16968	0.051117	0.011139	-0.45944	0.067749	-0.11963	0.003204	-0.060883	-0.18448	0.85098	-0.065918	0.13947	0.13321	0.11383	-0.079803	-0.025482	0.001678	-0.36072	-0.007477	0.22324	-0.035858	-0.001526	0.015717
5.334	0.00473	-0.26764	-0.042725	-0.003052	0.013123	-0.15656	0.19241	0.001373	-0.019379	-0.13123	-0.006561	0.004883	-0.12802	0.009613	-0.056	-0.040131	-0.046082	-0.21057	0.65094	-0.071259	0.10086	0.14694	0.0737	-0.059662	-0.030212	0.000763	-0.0383	-0.007782	-0.12421	0.020905	-0.00351	0.009766
5.335	0.012512	-0.23392	-0.081787	-0.011444	0.007935	-0.13199	0.13214	0.005493	-0.037537	-0.31403	-0.007935	-0.000153	-0.055237	0.11231	0.066528	-0.042725	-0.036621	-0.20386	0.82916	0.002594	0.066986	0.17441	0.10315	-0.007629	-0.034332	0.005035	0.13229	-0.005646	-0.074768	0.071259	0.000153	0.018463
5.336	0.018463	-0.22079	-0.020905	0.003204	0.087433	-0.10666	0.058594	0.003204	-0.063934	-0.28717	-0.019836	0.00351	0.026245	0.21545	0.068817	-0.045471	-0.028076	-0.23132	0.58701	0.11795	0.066071	0.1535	0.11581	-0.03067	-0.037079	-0.006561	0.13275	-0.003357	0.0914	0.06958	-0.002594	0.01236
5.337	0.002747	-0.21469	0.037079	0.00351	0.02121	-0.060577	0.10452	-0.003662	0.012665	-0.14832	0.008392	0.022888	0.10284	0.19821	0.03891	0.030365	-0.017548	-0.2063	0.51834	0.048065	0.069122	0.15472	0.14557	-0.069122	-0.035858	-0.000153	-0.028229	-0.010223	0.18005	-0.045929	0	0.008087
5.338	0.005493	-0.19928	0.066376	0.001678	-0.009003	-0.028839	0.081329	0	0.11353	-0.31296	0.015106	0.016327	0.078125	0.28153	-0.018768	-0.05188	-0.001373	-0.24323	0.48737	-0.15472	0.073395	0.13825	0.31067	-0.04837	-0.018921	0.000916	-0.13825	-0.009003	0.16586	-0.037079	-0.001068	0.004578
5.339	0.006409	-0.22995	0.078735	0	0.007172	-0.014191	0.12909	-0.004425	0.046082	-0.21393	-0.023956	-0.031738	0.20401	0.3183	0.015869	0.34332	-0.016937	-0.24704	0.62576	-0.14481	0.072174	0.14999	0.27313	-0.059662	-0.005188	0.001831	0.092926	-0.003204	-0.088043	0.023956	-0.002136	0.00412
5.34	-0.001221	-0.20065	-0.014648	0.031128	-0.000763	-0.044098	0.13931	-0.002747	-0.10346	0.011292	-0.006561	-0.055389	0.21851	-0.10605	0.00351	0.045624	-0.010681	-0.24017	0.83847	-0.093689	0.084076	0.12787	0.17059	-0.016632	-0.021362	0	0.4657	-0.003204	-0.1088	0.045471	-0.002594	0.002441
5.341	0.000153	-0.17807	-0.076904	0.010529	-0.010071	-0.018158	0.094147	0.004883	0.016327	0.14374	-0.003967	0.032043	0.14008	-0.76721	-0.010986	0.022125	-0.006561	-0.23697	0.87387	0.02655	0.09964	0.11688	0.10147	-0.052795	-0.019989	0.005188	0.60852	-0.008545	0.3215	0.028076	0	0.003662
5.342	0.000305	-0.1918	-0.070343	-0.000916	-0.016632	-0.023956	0.059357	0.002899	0.048218	0.081635	-0.007935	0.032806	0.18295	-0.91705	0.00885	-1.3365	-0.011444	-0.23407	0.88242	0.19119	0.1387	0.14358	0.002747	-0.02655	-0.019379	0.002289	0.46051	-0.003662	0.62363	0.007019	0.001526	0
5.343	-0.000153	-0.15579	-0.066833	0.007935	-0.02533	-0.023956	0.021057	-0.006866	0.084534	0.068817	-0.003967	0.242	0.13992	-0.33783	0.025635	-0.005493	-0.016479	-0.17014	0.77972	0.17853	0.11719	0.14755	-0.02243	-0.003204	-0.024109	0.00351	-0.41122	-0.004425	0.42648	-0.06424	0	0.001068
5.344	0.009155	-0.10529	-0.012512	0.005798	-0.011749	-0.005951	0.027008	-0.008087	0.067902	0.40665	0.014496	0.25559	0.082092	-0.10559	0.029144	0.86456	-0.027466	-0.14358	0.74829	0.060272	-0.011902	0.13245	-0.10208	-0.056915	-0.016937	0.007019	-0.37643	-0.00412	-0.027466	-0.1149	0	-0.00061
5.345	0.008087	-0.10941	0.007324	0.015106	0.030518	0.005646	0.049591	0.00412	0.039673	0.26596	0.002747	0.11032	-0.030365	0.10544	0.000458	-0.92514	-0.00946	-0.11795	0.84946	-0.049896	-0.12589	0.10971	-0.095978	-0.052643	-0.021973	0.012207	-0.26749	-0.008545	-0.05661	-0.13046	-0.002747	0.004578
5.346	0.006409	-0.088043	0.005646	0.028992	-0.001678	0.010071	0.018463	0.003967	0.019073	-0.32776	0.004883	-0.27985	0.028381	0.52277	-0.028534	0.43015	0.008087	-0.10513	1.226	-0.083466	-0.11078	0.096436	-0.030212	-0.064697	-0.024719	0.008392	0.006256	-0.002899	-0.22278	-0.12985	-0.000916	0.004578
5.347	0.003357	-0.10681	-0.037994	0.00946	-0.001068	0.012512	0.033722	0.002899	0.033569	-0.35904	0.020905	-0.09491	0.10223	0.53711	-0.059052	0.83069	0.015411	-0.13657	1.1253	-0.0177	-0.019226	0.083771	-0.007019	-0.074158	-0.009766	0.001678	-0.16724	-0.005951	-0.39414	-0.041809	-0.003052	0.007324
5.348	-0.001221	-0.12985	0.03006	-0.007324	-0.007172	0.050812	0.068665	-0.009918	0.062408	-0.1413	0.012054	-0.077362	0.11826	0.20264	-0.047607	-0.4425	0.012207	-0.18249	0.76599	0.017548	0.19486	0.086365	0.007477	-0.059662	-0.008545	0.001373	-0.27893	-0.006866	-0.11169	0.050812	-0.002594	0.008698
5.349	0.000305	-0.097961	-0.027313	-0.00946	-0.016022	0.038757	0.10574	-0.012207	0.024109	-0.036316	0.014801	0.17563	0.046844	0.028229	-0.009003	0.15167	0.025177	-0.12711	0.58777	-0.000153	0.18753	0.06134	0.028992	-0.067444	0.003815	-0.001831	-0.23865	0.00412	-0.051117	0.013275	0	0.012207
